<?xml version="1.0" encoding="UTF-8"?>
<svg xmlns="http://www.w3.org/2000/svg" xmlns:xlink="http://www.w3.org/1999/xlink" width="37.5pt" height="37.499999pt" viewBox="0 0 37.5 37.499999" version="1.2">
<defs>
<clipPath id="clip1">
  <path d="M 0.375 0.375 L 37.007812 0.375 L 37.007812 37.007812 L 0.375 37.007812 Z M 0.375 0.375 "/>
</clipPath>
</defs>
<g id="surface1">
<g clip-path="url(#clip1)" clip-rule="nonzero">
<path style=" stroke:none;fill-rule:nonzero;fill:rgb(100%,100%,100%);fill-opacity:1;" d="M 18.75 0.375 C 8.617188 0.375 0.375 8.617188 0.375 18.75 C 0.375 28.882812 8.617188 37.125 18.75 37.125 C 28.882812 37.125 37.125 28.882812 37.125 18.75 C 37.125 8.617188 28.882812 0.375 18.75 0.375 Z M 6.9375 31.816406 C 7.046875 31.753906 7.125 31.636719 7.125 31.5 C 7.125 25.089844 12.339844 19.875 18.75 19.875 C 25.160156 19.875 30.375 25.089844 30.375 31.5 C 30.375 31.636719 30.453125 31.753906 30.5625 31.816406 C 27.433594 34.648438 23.292969 36.375 18.75 36.375 C 14.210938 36.375 10.066406 34.648438 6.9375 31.816406 Z M 31.113281 31.296875 C 31.015625 25.410156 26.800781 20.511719 21.226562 19.375 C 23.515625 18.40625 25.125 16.136719 25.125 13.5 C 25.125 9.984375 22.265625 7.125 18.75 7.125 C 15.234375 7.125 12.375 9.984375 12.375 13.5 C 12.375 16.136719 13.984375 18.40625 16.273438 19.375 C 10.699219 20.511719 6.480469 25.410156 6.382812 31.296875 C 3.140625 28.097656 1.125 23.65625 1.125 18.75 C 1.125 9.03125 9.03125 1.125 18.75 1.125 C 28.46875 1.125 36.375 9.03125 36.375 18.75 C 36.375 23.65625 34.359375 28.097656 31.113281 31.296875 Z M 18.75 19.125 C 15.648438 19.125 13.125 16.601562 13.125 13.5 C 13.125 10.398438 15.648438 7.875 18.75 7.875 C 21.851562 7.875 24.375 10.398438 24.375 13.5 C 24.375 16.601562 21.851562 19.125 18.75 19.125 Z M 18.75 19.125 "/>
</g>
</g>
</svg>
